<?xml version="1.0" standalone="no"?>
<!DOCTYPE svg PUBLIC "-//W3C//DTD SVG 20010904//EN"
 "http://www.w3.org/TR/2001/REC-SVG-20010904/DTD/svg10.dtd">
<svg version="1.0" xmlns="http://www.w3.org/2000/svg"
 width="1241.000000pt" height="699.000000pt" viewBox="0 0 1241.000000 699.000000"
 preserveAspectRatio="xMidYMid meet">

<g transform="translate(0.000000,699.000000) scale(0.100000,-0.100000)"
fill="#000000" stroke="none">
<path d="M5444 6222 c-61 -21 -129 -73 -150 -114 -24 -46 -44 -119 -44 -160 0
-27 -8 -46 -30 -69 -16 -18 -38 -52 -47 -76 -10 -23 -28 -47 -40 -52 -36 -16
-102 -81 -128 -125 -13 -23 -29 -70 -35 -106 -8 -46 -10 -435 -8 -1315 l3
-1250 33 -67 c49 -100 157 -187 257 -207 85 -17 1714 -11 1765 7 49 16 148 98
185 151 16 25 67 81 112 126 51 50 91 100 105 130 l23 50 0 1300 c0 1057 -2
1307 -13 1338 -24 68 -85 132 -159 169 -62 30 -76 33 -179 36 l-111 4 -13 41
c-29 102 -98 170 -201 197 -134 36 -309 -90 -309 -223 0 -15 -7 -18 -47 -15
-46 3 -46 3 -63 55 -22 68 -42 97 -92 133 -64 47 -139 65 -204 51 -103 -23
-196 -113 -211 -203 -5 -34 -9 -38 -34 -38 -23 0 -29 4 -29 23 0 12 -11 45
-24 73 -29 62 -96 117 -169 139 -64 19 -80 18 -143 -3z m166 -93 c20 -11 49
-39 63 -62 26 -40 27 -45 27 -199 l0 -158 110 0 110 0 0 156 c0 163 3 178 49
227 38 42 74 57 134 57 66 0 124 -35 159 -94 21 -37 23 -55 26 -193 l4 -153
124 0 124 0 0 160 c0 187 6 205 78 251 36 23 57 29 100 29 59 0 83 -9 125 -49
49 -45 57 -79 57 -242 l0 -149 40 0 c71 0 122 -22 177 -76 89 -88 83 14 83
-1390 0 -1111 -2 -1238 -16 -1281 -22 -66 -67 -119 -125 -148 l-48 -25 -898 0
-898 0 -52 30 c-31 18 -64 48 -80 72 l-28 42 -3 1290 c-2 927 0 1302 8 1329
24 82 135 157 232 157 l38 0 0 73 c2 198 5 231 30 275 49 86 164 119 250 71z"/>
<path d="M5067 1703 c-54 -351 -98 -641 -97 -645 0 -12 330 -10 330 2 0 15 59
497 66 544 l6 39 154 -234 c89 -136 160 -234 169 -234 8 0 80 98 169 234 l154
235 6 -45 c4 -24 18 -141 31 -259 14 -118 28 -232 31 -252 l6 -38 164 0 c150
0 164 2 163 18 -2 65 -197 1266 -206 1269 -6 2 -119 -150 -251 -339 -133 -189
-247 -351 -255 -362 -12 -17 -35 13 -267 343 -139 199 -258 361 -264 361 -8 0
-46 -227 -109 -637z"/>
<path d="M98 2284 c-5 -4 -8 -283 -8 -621 l0 -613 155 0 155 0 0 210 0 210 38
0 37 0 130 -210 130 -210 177 0 c97 0 179 4 182 8 2 4 -65 108 -150 231 l-154
224 42 21 c175 89 246 334 152 532 -29 62 -107 138 -172 166 -104 46 -136 50
-427 55 -154 3 -283 1 -287 -3z m521 -292 c100 -50 106 -191 11 -246 -26 -16
-58 -21 -132 -24 l-98 -4 0 146 0 146 93 0 c68 0 101 -5 126 -18z"/>
<path d="M1575 1884 c-107 -21 -136 -30 -178 -51 -115 -57 -189 -167 -206
-302 -27 -217 67 -394 247 -461 190 -71 425 -39 552 76 57 52 105 123 92 136
-6 6 -61 23 -124 38 l-113 28 -30 -33 c-45 -48 -91 -68 -160 -69 -44 -1 -70 5
-95 20 -33 19 -79 84 -80 111 0 10 70 13 303 15 l302 3 3 43 c9 121 -38 262
-110 334 -84 84 -275 137 -403 112z m130 -210 c37 -17 60 -47 71 -88 l6 -26
-151 0 -151 0 10 24 c18 49 36 69 75 87 49 23 97 24 140 3z"/>
<path d="M2625 1883 c-208 -28 -354 -161 -387 -353 -31 -183 64 -372 226 -446
65 -30 173 -54 241 -54 70 0 178 25 225 51 l40 23 0 133 c0 100 -3 133 -13
133 -7 0 -18 -9 -24 -19 -34 -55 -173 -100 -252 -82 -143 32 -203 192 -114
309 72 95 247 99 348 7 20 -19 41 -35 46 -35 5 0 9 60 9 134 l0 135 -52 25
c-77 37 -192 52 -293 39z"/>
<path d="M3495 1880 c-220 -44 -358 -205 -358 -420 0 -95 23 -173 72 -243 181
-258 648 -242 807 28 58 100 69 260 24 378 -28 75 -110 163 -189 206 -99 53
-244 73 -356 51z m181 -249 c134 -61 134 -281 0 -342 -73 -33 -145 -20 -198
37 -35 38 -48 74 -48 134 0 60 13 96 48 134 53 57 125 70 198 37z"/>
<path d="M4647 1875 c-21 -8 -56 -28 -78 -46 l-39 -31 0 36 0 37 -137 -3 -138
-3 0 -405 0 -405 137 -3 136 -3 4 238 c3 219 5 241 24 273 36 61 101 77 163
39 18 -11 37 -17 41 -12 4 4 34 57 66 117 l57 109 -31 28 c-53 47 -132 60
-205 34z"/>
<path d="M6835 1876 c-77 -18 -172 -52 -202 -71 l-23 -15 45 -90 c25 -50 49
-90 54 -90 5 0 40 12 77 27 56 21 86 27 162 27 93 1 94 1 123 -32 22 -24 29
-42 29 -72 0 -22 -3 -40 -6 -40 -3 0 -34 7 -68 16 -129 34 -295 16 -378 -41
-111 -75 -129 -256 -38 -367 90 -109 309 -128 438 -38 23 17 45 30 47 30 3 0
5 -16 5 -35 l0 -35 135 0 136 0 -3 329 -3 329 -30 44 c-32 44 -113 100 -175
119 -57 18 -257 21 -325 5z m220 -500 c34 -10 40 -16 37 -36 -9 -82 -123 -141
-200 -103 -65 32 -70 112 -9 138 39 17 118 18 172 1z"/>
<path d="M8010 1875 c-25 -8 -64 -30 -87 -50 l-42 -35 -3 37 -3 38 -140 0
-140 0 0 -405 0 -405 140 0 140 0 5 275 c4 197 9 281 18 297 25 45 114 68 162
43 42 -22 45 -44 50 -335 l5 -280 145 0 145 0 0 305 c0 235 -3 314 -14 345
-41 117 -122 174 -258 181 -51 3 -93 -1 -123 -11z"/>
<path d="M8855 1876 c-77 -18 -172 -52 -202 -71 l-23 -15 45 -90 c25 -50 49
-90 54 -90 5 0 40 12 77 27 56 21 86 27 162 27 93 1 94 1 123 -32 22 -24 29
-42 29 -72 0 -22 -3 -40 -6 -40 -3 0 -34 7 -68 16 -33 9 -99 16 -146 17 -148
0 -245 -42 -297 -131 -24 -40 -28 -58 -28 -122 0 -93 30 -158 93 -207 104 -79
288 -81 400 -3 23 17 45 30 47 30 3 0 5 -16 5 -35 l0 -35 135 0 136 0 -3 329
-3 329 -30 44 c-32 44 -113 100 -175 119 -57 18 -257 21 -325 5z m220 -500
c34 -10 40 -16 37 -36 -9 -82 -123 -141 -200 -103 -65 32 -70 112 -9 138 39
17 118 18 172 1z"/>
<path d="M9880 1879 c-110 -22 -217 -107 -266 -213 -31 -69 -45 -176 -33 -268
36 -294 355 -442 593 -276 l59 41 -5 -80 c-10 -139 -61 -203 -169 -211 -32 -2
-70 -2 -83 2 -41 10 -95 64 -102 102 l-6 34 -134 0 c-77 0 -135 -4 -139 -10
-8 -14 20 -121 45 -170 63 -124 206 -193 400 -194 245 -1 392 99 445 299 12
49 15 136 15 497 l0 438 -135 0 -135 0 0 -45 0 -46 -57 40 c-88 62 -184 81
-293 60z m261 -252 c94 -63 114 -192 43 -277 -37 -43 -75 -60 -134 -60 -86 0
-150 50 -170 132 -22 87 15 173 95 216 37 21 128 14 166 -11z"/>
<path d="M11065 1884 c-107 -21 -136 -30 -178 -51 -115 -57 -189 -167 -206
-302 -27 -217 67 -394 247 -461 190 -71 425 -39 552 76 57 52 105 123 92 136
-6 6 -61 23 -124 38 l-113 28 -30 -33 c-45 -48 -91 -68 -160 -69 -44 -1 -70 5
-95 20 -33 19 -79 84 -80 111 0 10 70 13 303 15 l302 3 3 43 c9 121 -38 262
-110 334 -84 84 -275 137 -403 112z m130 -210 c37 -17 60 -47 71 -88 l6 -26
-151 0 -151 0 10 24 c18 49 36 69 75 87 49 23 97 24 140 3z"/>
<path d="M12167 1875 c-21 -8 -56 -28 -78 -46 l-39 -31 0 36 0 37 -137 -3
-138 -3 0 -405 0 -405 137 -3 136 -3 4 238 c3 219 5 241 24 273 36 61 101 77
163 39 18 -11 37 -17 41 -12 4 4 34 57 66 117 l57 109 -31 28 c-53 47 -132 60
-205 34z"/>
</g>
</svg>
